# xmcd
#
# Track frame offsets: 
#        150
#        15744
#        34266
#        52560
#        68016
#        83027
#        98904
#        112340
#        126553
#        142756
#        161347
#
# Disc length: 2455 seconds
#
# Revision: 0
# Processed by: cddbd v1.5.2PL0 Copyright (c) Steve Scherf et al.
# Submitted via: ExactAudioCopy v0.99pb4
#
DISCID=8909950b
DTITLE=Blues in a cop - Strong arm of the law
DYEAR=1900
DGENRE=
TTITLE0=Strong arm of the law
TTITLE1=King of bad taste
TTITLE2=Better hold tight
TTITLE3=Lose your blues
TTITLE4=Is anybody listening
TTITLE5=I don't care
TTITLE6=Mr. Cool
TTITLE7=Feelin' so fine
TTITLE8=Open up your mind
TTITLE9=Spellbound
TTITLE10=Circle of rings
EXTD=
EXTT0=
EXTT1=
EXTT2=
EXTT3=
EXTT4=
EXTT5=
EXTT6=
EXTT7=
EXTT8=
EXTT9=
EXTT10=
PLAYORDER=
